<svg xmlns="http://www.w3.org/2000/svg" width="300" height="100" viewBox="0 0 300 100">
  <path d="M19.5941675,36.0291211 C17.4505444,36.4055493 15.269209,36.5184082 13.0127271,36.8189941 L6.13014404,16.6608105 L6.13014404,37.6841528 C3.986521,37.9097314 2.03090332,38.2105957 0,38.51146 L0,-1.39124823e-15 L5.71669922,-1.39124823e-15 L13.5391699,21.8510669 L13.5391699,-1.39124823e-15 L19.5941675,-1.39124823e-15 L19.5941675,36.0291211 Z M31.4410107,14.1033252 C33.7729175,14.1033252 37.3457153,13.9904663 39.4893384,13.9904663 L39.4893384,20.0077515 C36.8189941,20.0077515 33.6976318,20.0077515 31.4410107,20.1206104 L31.4410107,29.0716699 C34.9763745,28.8460913 38.5115991,28.5449487 42.0842578,28.4320898 L42.0842578,34.2235181 L25.4234473,35.5401123 L25.4234473,5.71417913e-15 L42.0842578,5.71417913e-15 L42.0842578,6.01742432 L31.4410107,6.01742432 L31.4410107,14.1033252 Z M64.4614893,6.01756348 L58.2184863,6.01756348 L58.2184863,33.6976318 C56.187583,33.6976318 54.1566797,33.6976318 52.2013403,33.7726392 L52.2013403,6.01756348 L45.9583374,6.01756348 L45.9583374,-4.94396191e-15 L64.4617676,-4.94396191e-15 L64.4614893,6.01756348 L64.4614893,6.01756348 Z M74.2397168,13.6897412 L82.476189,13.6897412 L82.476189,19.7070264 L74.2397168,19.7070264 L74.2397168,33.3591943 L68.3347339,33.3591943 L68.3347339,5.71417913e-15 L85.146394,5.71417913e-15 L85.146394,6.01742432 L74.2397168,6.01742432 L74.2397168,13.6897412 Z M94.9246216,28.0937915 C98.3471265,28.1687988 101.806926,28.4325073 105.154285,28.6202344 L105.154285,34.5625122 C99.7763013,34.2237964 94.3981787,33.8857764 88.9073364,33.7726392 L88.9073364,-1.39124823e-15 L94.9246216,-1.39124823e-15 L94.9246216,28.0937915 Z M110.231404,34.9762354 C112.149448,35.0892334 114.180352,35.2020923 116.135969,35.4273926 L116.135969,-4.94396191e-15 L110.231404,-4.94396191e-15 L110.231404,34.9762354 Z M142.5,-1.39124823e-15 L134.865256,18.315564 L142.5,38.51146 C140.24324,38.2105957 137.986758,37.7968726 135.730137,37.4207227 L131.405317,26.2887451 L127.005491,36.5184082 C124.823738,36.14198 122.717688,36.0291211 120.53677,35.7282568 L128.284094,18.089707 L121.288652,-1.39124823e-15 L127.757095,-1.39124823e-15 L131.706042,10.1168042 L135.91842,-1.39124823e-15 L142.5,-1.39124823e-15 Z" transform="translate(79 31)"/>
</svg>
