<svg xmlns="http://www.w3.org/2000/svg" width="300" height="100" viewBox="0 0 300 100">
  <g transform="translate(90 30)">
    <path d="M29.5332 14.125228L15.5448 14.125228 15.5448 18.3308207 25.46556 18.3308207C24.975456 24.2282067 20.13276 26.7432219 15.5616 26.7432219 9.71328 26.7432219 4.60992 22.0810942 4.60992 15.5466261 4.60992 9.18103343 9.47472 4.27866261 15.57444 4.27866261 20.28048 4.27866261 23.05356 7.31817629 23.05356 7.31817629L25.95996 4.26881459C25.95996 4.26881459 22.22952.0611550152 15.42588.0611550152 6.76224.0610334347.05988 7.46942249.05988 15.4714894.05988 23.3125836 6.36456 30.9584195 15.64668 30.9584195 23.8104 30.9584195 29.78628 25.2922796 29.78628 16.9134347 29.78628 15.1457751 29.532972 14.1241337 29.532972 14.1241337L29.5332 14.125228zM40.992 11.0795137C35.25216 11.0795137 31.13868 15.6260182 31.13868 20.9285106 31.13868 26.3094225 35.12856 30.9404255 41.05944 30.9404255 46.42848 30.9404255 50.82708 26.7827356 50.82708 21.0441337 50.82708 14.4668693 45.71052 11.0795137 40.992 11.0795137zM41.0490756 14.9801824C43.8717156 14.9801824 46.5465156 17.2922796 46.5465156 21.0178723 46.5465156 24.6644377 43.8831156 27.0424316 41.0361156 27.0424316 37.9079556 27.0424316 35.4401556 24.5040729 35.4401556 20.9889362 35.4401556 17.5491793 37.8773556 14.9801824 41.0490756 14.9801824zM62.4216 11.0795137C56.68176 11.0795137 52.56828 15.6260182 52.56828 20.9285106 52.56828 26.3094225 56.55816 30.9404255 62.48904 30.9404255 67.85808 30.9404255 72.25668 26.7827356 72.25668 21.0441337 72.25668 14.4668693 67.14012 11.0795137 62.4216 11.0795137L62.4216 11.0795137zM62.4786744 14.9801824C65.3013144 14.9801824 67.9761144 17.2922796 67.9761144 21.0178723 67.9761144 24.6644377 65.3127144 27.0424316 62.4657144 27.0424316 59.3375544 27.0424316 56.8697544 24.5040729 56.8697544 20.9889362 56.8697544 17.5491793 59.3069544 14.9801824 62.4786744 14.9801824L62.4786744 14.9801824zM83.4408 11.0899696C78.17232 11.0899696 74.03112 15.7651064 74.03112 21.0125228 74.03112 26.9897872 78.8322 30.9535562 83.34996 30.9535562 86.14344 30.9535562 87.6288 29.8300912 88.72548 28.5405471L88.72548 30.4987234C88.72548 33.9248632 86.67228 35.976535 83.57316 35.976535 80.57928 35.976535 79.0776 33.7210942 78.55572 32.4412158L74.7888 34.0367173C76.12512 36.8995745 78.81528 39.8851064 83.60436 39.8851064 88.8426 39.8851064 92.835 36.5422492 92.835 29.5314286L92.835 11.6870517 88.7256 11.6870517 88.7256 13.3692401C87.462 11.9896657 85.734 11.0902128 83.4408 11.0902128L83.4408 11.0899696zM83.82216 14.9827356C86.40516 14.9827356 89.05752 17.217386 89.05752 21.0335562 89.05752 24.912462 86.4108 27.0502128 83.76504 27.0502128 80.95632 27.0502128 78.34284 24.7395745 78.34284 21.0703951 78.34284 17.2578723 81.05712 14.9827356 83.82204 14.9827356L83.82216 14.9827356zM111.1068 11.0662614C106.13712 11.0662614 101.96436 15.0723404 101.96436 20.9835866 101.96436 27.238541 106.61544 30.9482067 111.58416 30.9482067 115.73112 30.9482067 118.27632 28.6496049 119.79528 26.590152L116.40708 24.3060182C115.527864 25.6885106 114.05796 27.0396353 111.60492 27.0396353 108.84948 27.0396353 107.58252 25.5108815 106.7976 24.0300304L119.94 18.504924 119.257692 16.8857143C117.988092 13.7148936 115.026492 11.0668693 111.107292 11.0668693L111.1068 11.0662614zM111.278016 14.8854711C113.068776 14.8854711 114.357576 15.8501155 114.904896 17.0066869L106.128216 20.7234043C105.749832 17.8459574 108.440496 14.8854711 111.278016 14.8854711z"/>
    <polygon points="95.699 30.359 100.016 30.359 100.016 1.088 95.699 1.088"/>
  </g>
</svg>
