<svg xmlns="http://www.w3.org/2000/svg" width="300" height="100" viewBox="0 0 300 100">
  <g fill-rule="evenodd" transform="translate(70 34)">
    <g fill-rule="nonzero" transform="translate(43 3)">
      <polygon points="100.466 21.969 106.159 13.793 100.727 6 105.982 6 108.824 10.813 111.868 6 117.006 6 111.497 13.603 117.159 21.969 112.185 21.969 108.851 16.679 105.814 21.969"/>
      <path d="M92.521,22.5 C87.531,22.5 84.637,19.62 84.637,14.28 L84.637,13.83 C84.637,8.38 88.014,5.5 92.521,5.5 C97.136,5.5 100.338,8.492 100.338,13.887 L100.338,14.337 C100.338,19.676 97.19,22.501 92.521,22.501 L92.521,22.5 Z M92.469,18.562 C94.76,18.562 96.081,16.885 96.081,14.212 L96.081,13.856 C96.081,11.106 94.761,9.467 92.496,9.467 C90.257,9.467 88.895,11.01 88.895,13.861 L88.895,14.218 C88.895,16.865 90.178,18.562 92.469,18.562 Z M76.439,22.42 C73.779,22.42 72.269,21.403 71.402,19.33 L70.518,22 L67.04,22 L67.04,0.993 L71.002,0.993 L71.002,9.039 C72.193,6.42 74.003,5.48 76.552,5.48 C79.323,5.5 82.244,8.52 82.244,13.727 L82.25,14.08 C82.25,19.456 80.082,22.42 76.44,22.42 L76.439,22.42 Z M74.36,18.585 C76.78,18.585 77.998,17.185 77.998,14.126 L77.998,13.79 C77.998,10.816 76.636,9.59 74.521,9.59 C72.271,9.59 71.195,11.135 71.195,13.902 L71.195,14.187 C71.195,16.825 72.138,18.585 74.36,18.585 L74.36,18.585 Z M49.034,28.009 L49.034,6.03 L52.548,6.07 L53.506,8.822 C54.325,6.396 55.408,5.507 58.068,5.507 C61.542,5.507 64.216,8.301 64.216,13.408 L64.164,14.405 C64.164,19.725 61.504,22.447 58.068,22.447 C55.492,22.447 53.868,21.28 53,19.404 L53,28.008 L49.034,28.008 L49.034,28.009 Z M56.449,18.61 C58.947,18.61 60.029,16.87 60.029,14.198 L60.029,13.841 C60.029,11.092 58.947,9.515 56.478,9.515 C54.038,9.515 53.02,10.909 53.02,13.76 L53.02,14.116 C53.02,16.763 53.95,18.61 56.449,18.61 Z M38.537,22.5 C33.547,22.5 30.653,19.62 30.653,14.28 L30.653,13.83 C30.653,8.38 34.03,5.5 38.537,5.5 C43.152,5.5 46.354,8.492 46.354,13.887 L46.354,14.337 C46.354,19.676 43.205,22.501 38.537,22.501 L38.537,22.5 Z M38.485,18.562 C40.776,18.562 42.097,16.885 42.097,14.212 L42.097,13.856 C42.097,11.106 40.777,9.467 38.511,9.467 C36.273,9.467 34.911,11.01 34.911,13.861 L34.911,14.218 C34.911,16.865 36.193,18.562 38.485,18.562 Z M19.06,22 L23.36,22 L23.268,16.416 C23.268,11.99 24.694,10.454 28.166,10.454 L29.493,10.454 L29.45,5.76 L28.823,5.76 C25.827,5.76 24.003,7.092 23.359,9.668 L22.573,5.993 L19.059,6.012 L19.059,22 L19.06,22 Z M0,22 L0,2.036 L7.818,2.036 C12.245,2.036 16.442,4.864 16.442,11.276 L16.442,12.648 C16.442,19.088 11.959,22 7.93,22 L0,22 Z M8.046,6.087 C6.498,6.124 5.476,6.143 4.979,6.143 C4.866,6.143 4.533,6.048 3.979,5.86 L4.472,6.76 L4.472,17.15 L4.078,18.021 C4.6,17.829 4.926,17.732 5.055,17.732 C5.566,17.732 6.61,17.714 8.186,17.677 C10.234,17.677 11.799,15.93 11.799,12.506 L11.799,11.4 C11.799,8.162 10.244,6.086 8.046,6.086 L8.046,6.087 Z"/>
    </g>
    <polygon points=".948 6.43 9.981 12.184 19.014 6.43 9.981 .675"/>
    <polygon points="19 6.43 28.033 12.184 37.066 6.43 28.033 .675"/>
    <polygon points=".948 17.859 9.981 23.613 19.014 17.859 9.981 12.104"/>
    <polygon points="28.033 12.104 19 17.859 28.033 23.613 37.066 17.859"/>
    <polygon points="10.039 25.52 19.072 31.275 28.105 25.52 19.072 19.766"/>
  </g>
</svg>
