<svg xmlns="http://www.w3.org/2000/svg" width="300" height="100" viewBox="0 0 300 100">
  <path fill-rule="evenodd" d="M81.8687273,10.1181818 C79.6425318,9.87818182 77.7170455,10.5572727 76.0882045,12.5284091 L76.0882045,0.439090909 L70.1925455,1.15772727 L70.1925455,29.1395455 L76.0882045,29.1395455 L76.0882045,27.4786364 C76.8833227,28.05 77.6567682,28.7379545 78.5616045,29.0638636 C81.9967318,30.3034091 86.5263318,29.2929545 88.11115,24.6675 C89.1284136,21.6995455 89.102,18.6572727 88.3360045,15.6565909 C87.4860273,12.3225 85.2815045,10.4829545 81.86805,10.1168182 L81.8687273,10.1181818 Z M82.7491818,22.2361364 C82.4904636,24.0811364 81.0316182,25.0479545 79.2998318,24.9122727 C78.8663773,24.8781818 78.4755909,24.7895455 78.1240864,24.6504545 C76.7289045,23.8438636 76.3069636,22.4931818 76.1843773,21.645 C76.1830227,21.645 76.1816682,21.645 76.1816682,21.6463636 C76.08685,20.3338636 75.9832273,17.5895455 76.6191864,16.2927273 C77.1589727,15.2986364 78.1010591,14.7572727 79.3506273,14.7156818 C81.1264364,14.6570455 82.4694682,15.5434091 82.7336045,17.3570455 C82.9679409,18.9552273 82.9787773,20.6393182 82.7512136,22.2361364 L82.7491818,22.2361364 Z M102.762591,10.4631818 C100.714518,9.91090909 98.6447727,9.91772727 96.6014409,10.4665909 C93.5401682,11.2875 91.4880318,13.2375 90.8276909,16.3390909 C90.4667045,18.0313636 90.3942364,19.83 90.4904091,21.5659091 C90.7084909,25.5340909 93.1466727,28.3622727 96.9312727,29.2404545 C96.9841,29.2540909 97.0396364,29.2629545 97.0938182,29.2745455 L97.0924636,29.2745455 L97.1195545,29.2813636 C97.2658455,29.31 97.4107818,29.3372727 97.55775,29.3597727 L97.7047182,29.3734091 L97.7087818,29.3734091 C97.8916455,29.4075 98.1124364,29.4327273 98.3440636,29.4511364 C99.085,29.5302273 100.027764,29.5875 100.814755,29.4934091 C100.820173,29.4934091 100.822882,29.4920455 100.826945,29.4913636 C100.867582,29.4913636 100.908218,29.4913636 100.9475,29.4879545 C104.855364,29.2834091 107.820464,26.8029545 108.686018,22.9970455 C109.160109,20.9106818 109.160109,18.8134091 108.701595,16.7243182 C107.982332,13.4468182 106.007405,11.3379545 102.761914,10.4638636 L102.762591,10.4631818 Z M103.013182,21.9354545 C102.992864,22.0581818 102.972545,22.1809091 102.945455,22.3022727 C102.552636,24.0531818 101.2902,25.0009091 99.6065,24.9218182 C97.7947955,24.8386364 96.552,23.7729545 96.3779409,21.9511364 C96.2519682,20.6202273 96.2424864,19.2613636 96.35085,17.9297727 C96.5235545,15.8277273 97.8293364,14.6775 99.7880091,14.7170455 C101.397886,14.7484091 102.544509,15.6668182 102.953582,17.2247727 C103.324727,18.7929545 103.0484,21.5788636 103.012505,21.9361364 L103.013182,21.9354545 Z M14.2593,10.365 L10.0507273,10.365 L10.0507273,7.54772727 C10.3588864,4.88454545 14.72865,5.39045455 14.72865,5.39045455 L14.7300045,5.20840909 L14.7279727,5.18795455 L14.7279727,0.812727273 L14.7239091,0.812727273 C14.5749091,0.775909091 6.03246818,-1.26477273 4.3359,5.28 C4.3359,5.28136364 4.3359,5.28340909 4.33386818,5.28477273 L4.32235455,5.32772727 C4.05550909,6.14590909 4.07379545,9.89318182 4.07718182,10.3643182 L0.430745455,10.3643182 L0.430745455,15.3756818 L4.30474545,15.3756818 L4.30474545,29.0052273 L9.94439545,29.0052273 L9.94439545,15.375 L14.2586227,15.375 L14.7442273,10.3636364 L14.2593,10.3636364 L14.2593,10.365 Z M27.7106136,12.7622727 C27.6415318,12.6852273 27.5731273,12.6109091 27.5142045,12.5488636 C27.5047227,12.5386364 27.4972727,12.5304545 27.4871136,12.5215909 C27.4058409,12.435 27.3482727,12.3784091 27.3482727,12.3784091 C26.0208182,11.0181818 25.5196364,10.6806818 24.4786682,10.3711364 C20.4780182,9.18477273 16.5830227,11.2943182 15.3490318,15.3463636 C14.5918409,17.8363636 14.5810045,20.3986364 15.0252955,22.9213636 C15.9849909,28.3813636 20.0195045,30.21 24.3195091,29.3086364 C25.6388364,29.0318182 26.6195273,28.2040909 27.5297818,27.0531818 C27.5297818,27.0531818 27.6110545,26.9522727 27.7112909,26.7559091 L27.7112909,29.1593182 L33.2134545,29.1593182 L33.2134545,10.3861364 L27.7112909,10.3861364 L27.7112909,12.7622727 L27.7106136,12.7622727 Z M27.2263636,22.2088636 C27.0421455,23.9447727 25.6469636,24.9872727 23.9978045,24.9225 C22.3080091,24.8556818 21.1898318,23.9447727 20.8247818,22.3125 C20.3872636,19.9902273 20.8992818,17.2309091 20.9426273,17.0079545 C21.3842091,15.4486364 22.5105136,14.6775 24.1630591,14.7170455 C25.7858045,14.7531818 27.0367273,15.7193182 27.2195909,17.4122727 C27.3909409,18.9954545 27.3956818,20.625 27.2263636,22.2088636 L27.2263636,22.2088636 Z M50.0179455,27.8127273 C49.7626136,26.8718182 49.4720636,25.9445455 49.1916727,25.0493182 L48.9255045,24.0525 C48.9255045,24.0525 42.0288364,27.3852273 40.9540045,21.0525 C40.8537682,20.0072727 40.8842455,18.9286364 41.02715,17.8970455 C41.29535,15.9504545 42.4751591,14.9079545 44.3525591,14.7293182 C44.9858091,14.6679545 45.64615,14.6993182 46.2733045,14.8063636 C47.1280227,14.9515909 47.9624227,15.2106818 48.8977364,15.4431818 C49.2228273,14.4422727 49.5546909,13.4522727 49.8642045,12.4540909 C49.9129682,12.2972727 49.9536045,12.1629545 49.9861136,12.0422727 L50.1418864,11.4422727 C50.1026045,11.3631818 50.0084636,11.2806818 49.8824909,11.2002273 C49.7240091,11.0672727 49.4537773,10.9561364 49.0318364,10.8006818 C48.8625182,10.7393182 48.6932,10.6847727 48.5238818,10.6302273 C48.37285,10.5825 48.2732909,10.5538636 48.2732909,10.5538636 L48.2746455,10.5538636 C46.4629409,10.0322727 44.6038273,9.99204545 42.7142364,10.1925 C38.7318727,10.6152273 36.0282,12.9811364 35.2777818,16.8879545 C34.8849636,18.9422727 34.90325,21.0225 35.3549909,23.0836364 C36.0322636,26.1702273 37.8900227,28.1645455 40.9113364,29.0563636 C42.8822,29.6379545 44.9031818,29.6672727 46.9133273,29.3515909 C47.7585636,29.2186364 48.9708818,28.7775 49.8411773,28.4631818 L50.1730409,28.3459091 L50.0159136,27.8120455 L50.0172682,27.8134091 L50.0179455,27.8127273 Z M68.1722409,20.4681818 C68.14515,19.1693182 68.1634364,17.8636364 67.9805727,16.5865909 C67.4773591,13.0847727 65.3595273,10.8688636 61.9345591,10.29 C60.6274227,10.0697727 59.2457864,10.0990909 57.9169773,10.2265909 C54.2820545,10.5743182 51.5235227,12.8543182 50.9573227,16.2845455 C50.6132682,18.3654545 50.5692455,20.5731818 50.8469273,22.6636364 C51.2668364,25.8081818 52.7866364,27.8113636 55.4171636,28.7727273 L55.4185182,28.7727273 C55.4300318,28.7727273 55.4415455,28.7747727 55.4523818,28.7761364 L55.4523818,28.7781818 C56.6525091,29.1395455 62.5298818,30.6872727 67.7096636,28.0663636 L67.5017409,27.2986364 C67.4997091,27.3 67.4963227,27.3 67.4949682,27.3 C67.2545364,26.2759091 66.9666955,25.2627273 66.6944318,24.2475 L66.6653091,24.1479545 C66.6653091,24.1479545 66.5569455,24.1868182 66.3673091,24.2481818 C66.3625682,24.2481818 66.35715,24.2481818 66.3537636,24.2495455 C66.1268773,24.3088636 65.9033773,24.3790909 65.6812318,24.4540909 C65.6405955,24.4677273 65.5999591,24.48 65.5579682,24.4922727 C64.7736864,24.7145455 63.6528,24.9886364 62.4696045,25.1420455 C61.4753682,25.2429545 60.47165,25.2470455 59.45845,25.1597727 C57.8126773,24.8870455 56.5543045,23.9993182 56.6139045,21.9020455 L67.2301545,21.9020455 C67.3066864,21.9020455 67.3845727,21.9020455 67.4604273,21.9006818 L67.4604273,21.9020455 C67.4604273,21.9020455 68.1532773,21.8931818 68.1824,21.8863636 L68.1824,21.6790909 L68.1715636,20.4688636 L68.1722409,20.4681818 Z M62.8691955,17.9093182 L56.4987682,17.9093182 C56.5326318,16.6343182 56.6911136,15.4479545 57.8174182,14.7252273 C59.0134818,13.9615909 60.3348409,13.9322727 61.5647682,14.6181818 C62.8082409,15.3095455 62.9057682,16.5586364 62.8698727,17.9093182 L62.8691955,17.9093182 Z M148.5679,10.5818182 L142.313964,10.5818182 L136.882236,19.1304545 L136.882236,0.456818182 L130.986577,1.17545455 L130.986577,29.1572727 L136.882236,29.1572727 L136.882236,20.5936364 L142.313964,29.1709091 L148.5679,29.1709091 L142.673595,19.8606818 L148.5679,10.5818182 Z M122.870818,10.4604545 C120.822745,9.90818182 118.753,9.915 116.707636,10.4631818 C113.648395,11.2840909 111.596936,13.2334091 110.935918,16.3336364 C110.574932,18.0272727 110.502464,19.8259091 110.598636,21.5618182 C110.815364,25.5313636 113.2549,28.3595455 117.038145,29.2370455 C117.092327,29.2506818 117.147864,29.2602273 117.202045,29.2725 L117.200691,29.2725 L117.227782,29.2779545 C117.372718,29.3072727 117.519009,29.3345455 117.665977,29.3563636 C117.714741,29.3611364 117.764182,29.3659091 117.812945,29.3686364 C117.8143,29.37 117.815655,29.37 117.817009,29.37 C118.001905,29.4040909 118.220664,29.43 118.450936,29.4484091 C119.193227,29.5275 120.137345,29.5847727 120.922982,29.4906818 L120.935173,29.4879545 C120.975809,29.4879545 121.016445,29.4879545 121.054373,29.4852273 C124.962236,29.2806818 127.928691,26.7988636 128.794245,22.9943182 C129.268336,20.9079545 129.268336,18.81 128.811177,16.7215909 C128.090559,13.4434091 126.116986,11.3352273 122.871495,10.4611364 L122.870818,10.4604545 Z M123.120055,21.9320455 C123.099736,22.0561364 123.079418,22.1775 123.052327,22.3002273 C122.659509,24.0504545 121.39775,24.9968182 119.713373,24.9184091 C117.902345,24.8338636 116.660227,23.7688636 116.485491,21.9477273 C116.359518,20.6181818 116.348005,19.2586364 116.4584,17.9270455 C116.632459,15.8243182 117.936886,14.6747727 119.896914,14.7136364 C121.503405,14.745 122.651382,15.6634091 123.059777,17.2213636 C123.430245,18.7881818 123.156627,21.5761364 123.119377,21.9327273 L123.120055,21.9320455 Z" transform="translate(75 33)"/>
</svg>
