<svg xmlns="http://www.w3.org/2000/svg" width="300" height="100" viewBox="0 0 300 100">
  <g fill-rule="evenodd" transform="translate(78 32)">
    <path d="M89.3347834,33.9362179 C80.9667,40.1041584 68.8376722,43.3949774 58.3948109,43.3949774 C43.752227,43.3949774 30.5701474,37.9792282 20.5973942,28.9717834 C19.8138672,28.263469 20.5159046,27.298165 21.4561426,27.8497656 C32.2186882,34.1117294 45.52614,37.878935 59.2723642,37.878935 C68.5430669,37.878935 78.7414752,35.9608536 88.1187451,31.9805323 C89.5353638,31.3787779 90.720059,32.9082293 89.3347834,33.9362179"/>
    <path d="M92.8136506 29.9558952C91.7480477 28.5894216 85.7430864 29.3102669 83.0477506 29.6299469 82.2266093 29.73024 82.1012501 29.0156602 82.840896 28.5016622 87.623555 25.1356248 95.4713794 26.1072014 96.3865397 27.2354803 97.3016986 28.3700318 96.1483478 36.2366611 91.6540258 39.9913258 90.9645206 40.5680011 90.3063571 40.2608621 90.6135019 39.4961357 91.6226856 36.976307 93.8855189 31.3286371 92.8136506 29.9558952M83.2357973 4.73881118L83.2357973 1.46679682C83.2357973.971607038 83.6118907.639391262 84.063204.639391262L98.712049.639391262C99.1821686.639391262 99.5582621.977876078 99.5582621 1.46679682L99.5582621 4.26869496C99.5519981 4.73881118 99.1570954 5.35309747 98.4550507 6.32467253L90.864229 17.1624398C93.6849341 17.0934941 96.6623429 17.51346 99.21978 18.9551534 99.7964554 19.2811003 99.9531619 19.7574854 99.9970387 20.2276066L99.9970387 23.7190104C99.9970387 24.1953941 99.470507 24.7532616 98.9189035 24.4649261 94.4120462 22.1018026 88.4258885 21.8448058 83.4426475 24.4900008 82.9349222 24.765804 82.4021237 24.2142005 82.4021237 23.7378125L82.4021237 20.4219216C82.4021237 19.889123 82.4083877 18.9802253 82.9411862 18.171625L91.7355125 5.55994987 84.0820075 5.55994987C83.6118907 5.55994987 83.2357973 5.22773683 83.2357973 4.73881118M29.7991526 25.1544298L25.3424434 25.1544298C24.9162062 25.1230925 24.5777213 24.8034125 24.5463782 24.3959731L24.5463782 1.5232153C24.5463782 1.06563457 24.9287414.702074462 25.4051251.702074462L29.5609594.702074462C29.993472.720866462 30.3382195 1.05309419 30.369564 1.46679682L30.369564 4.45674542 30.4510507 4.45674542C31.5354528 1.56708864 33.5726251.219419582 36.3181104.219419582 39.107471.219419582 40.8500395 1.56708864 42.1036848 4.45674542 43.18182 1.56708864 45.6326957.219419582 48.2590858.219419582 50.1270178.219419582 52.1704598.990411566 53.4178382 2.72044267 54.8281886 4.6447884 54.5398488 7.44041765 54.5398488 9.89129794L54.5335848 24.3270274C54.5335848 24.7846061 54.1512216 25.1544298 53.6748379 25.1544298L49.2243926 25.1544298C48.779352 25.1230925 48.4220635 24.765804 48.4220635 24.3270274L48.4220635 12.2042727C48.4220635 11.2389666 48.5098128 8.83196669 48.2966971 7.91680277 47.9644819 6.38109115 46.9678349 5.94857909 45.6765754 5.94857909 44.5984402 5.94857909 43.4701613 6.66942581 43.0125797 7.82278243 42.5549981 8.97613646 42.5988763 10.9067465 42.5988763 12.2042727L42.5988763 24.3270274C42.5988763 24.7846061 42.2165146 25.1544298 41.740128 25.1544298L37.2896899 25.1544298C36.8383766 25.1230925 36.487355 24.765804 36.487355 24.3270274L36.481091 12.2042727C36.481091 9.65310523 36.901057 5.89843426 33.7356072 5.89843426 30.5325389 5.89843426 30.6579038 9.55907784 30.6579038 12.2042727L30.6579038 24.3270274C30.6579038 24.7846061 30.2755406 25.1544298 29.799157 25.1544298M112.169938.219419582C118.782919.219419582 122.362073 5.89843426 122.362073 13.1194342 122.362073 20.0959704 118.406818 25.6308149 112.169938 25.6308149 105.676052 25.6308149 102.14077 19.9518005 102.14077 12.8749726 102.14077 5.75426434 105.719928.219419582 112.169938.219419582M112.207545 4.88925245C108.922995 4.88925245 108.716115 9.36476309 108.716115 12.154128 108.716115 14.9497574 108.672264 20.9171088 112.169938 20.9171088 115.62373 20.9171088 115.786706 16.1031139 115.786706 13.1695766 115.786706 11.2389666 115.705218 8.93225837 115.12227 7.10193298 114.620812 5.50980763 113.624168 4.88925245 112.207545 4.88925245M130.937011 25.1544298L126.499107 25.1544298C126.05406 25.1230925 125.696772 24.765804 125.696772 24.3270274L125.690508 1.44799229C125.728118 1.02802077 126.097946.702074462 126.549256.702074462L130.680022.702074462C131.068647.720866462 131.388327.984144974 131.476087 1.34143403L131.476087 4.83910286 131.557569 4.83910286C132.80495 1.71125856 134.55378.219419582 137.63148.219419582 139.631046.219419582 141.580466.940266878 142.834111 2.91475742 144 4.74508008 144 7.82278243 144 10.035463L144 24.4335874C143.949856 24.8347498 143.580028 25.1544298 143.141257 25.1544298L138.672009 25.1544298C138.264571 25.1230925 137.926086 24.8222174 137.882213 24.4335874L137.882213 12.0099584C137.882213 9.50893546 138.17055 5.84828712 135.092848 5.84828712 134.008448 5.84828712 133.011798 6.57540547 132.516608 7.67861006 131.889787 9.07642843 131.808299 10.467975 131.808299 12.0099584L131.808299 24.3270274C131.802035 24.7846061 131.413402 25.1544298 130.937018 25.1544298M71.558087 14.2289101C71.558087 15.965208 71.6019638 17.4131683 70.724412 18.9551534 70.0161034 20.208803 68.887823 20.9797934 67.6404475 20.9797934 65.9292206 20.9797934 64.9263038 19.6759987 64.9263038 17.7516533 64.9263038 13.9531085 68.3299498 13.2636043 71.558087 13.2636043L71.558087 14.2289101M76.0524077 25.091748C75.7578038 25.3550131 75.3315595 25.3738166 74.9993458 25.1983094 73.520041 23.9697374 73.250509 23.3993304 72.4419086 22.2271718 69.9972984 24.7219243 68.2609968 25.4678414 65.0955427 25.4678414 61.3408738 25.4678414 58.426151 23.1548645 58.426151 18.5226494 58.426151 14.9058792 60.381841 12.4424656 63.1774699 11.2389666 65.597004 10.1733641 68.9755738 9.98532072 71.558087 9.69071443L71.558087 9.11403749C71.558087 8.05470365 71.6395752 6.80105779 71.0127518 5.88590122 70.473685 5.06476008 69.4331554 4.7262757 68.5117282 4.7262757 66.8130365 4.7262757 65.3023973 5.59755907 64.9325693 7.40280845 64.8573509 7.80397776 64.562747 8.19887602 64.1553077 8.21768054L59.8365014 7.75382846C59.4729418 7.67234592 59.0655096 7.37773488 59.1720696 6.81986707 60.1624498 1.57962902 64.901232.0000312595315 69.1385501.0000312595315 71.3073586.0000312595315 74.140596.576709502 75.8518229 2.21898398 78.020627 4.24362139 77.8137782 6.94522771 77.8137782 9.88502904L77.8137782 16.8302246C77.8137782 18.9175478 78.6787934 19.8327038 79.4936621 20.9609899 79.7757365 21.3621523 79.8384182 21.8448058 79.4748398 22.1456808 78.5659478 22.9041403 76.9487429 24.3144907 76.0586558 25.1042861L76.0523918 25.0917293M13.1319379 14.2289101C13.1319379 15.965208 13.1758111 17.4131683 12.2982634 18.9551534 11.5899497 20.208803 10.467938 20.9797934 9.21429216 20.9797934 7.50306557 20.9797934 6.50641925 19.6759987 6.50641925 17.7516533 6.50641925 13.9531085 9.9100656 13.2636043 13.1319379 13.2636043L13.1319379 14.2289101M17.6262552 25.091748C17.3316499 25.3550131 16.9054056 25.3738166 16.5731904 25.1983094 15.0938928 23.9697374 14.8306234 23.3993304 14.0157544 22.2271718 11.5711451 24.7219243 9.84111869 25.4678414 6.66939125 25.4678414 2.92098931 25.4678414-3.08325771e-7 23.1548645-3.08325771e-7 18.5226494-3.08325771e-7 14.9058792 1.9619545 12.4424656 4.7513147 11.2389666 7.17085008 10.1733641 10.5494252 9.98532072 13.1319379 9.69071443L13.1319379 9.11403749C13.1319379 8.05470365 13.2134252 6.80105779 12.59287 5.88590122 12.0475305 5.06476008 11.0070084 4.7262757 10.0918444 4.7262757 8.39315837 4.7262757 6.87624394 5.59755907 6.50641925 7.40280845 6.43119883 7.80397776 6.1365924 8.19887602 5.73542784 8.21768054L1.410351 7.75382846C1.04679304 7.67234592.645625987 7.37773488.745917754 6.81986707 1.74256646 1.57962902 6.47507678.0000312595315 10.7124021.0000312595315 12.8812049.0000312595315 15.7144435.576709502 17.4256704 2.21898398 19.5944789 4.24362139 19.3876243 6.94522771 19.3876243 9.88502904L19.3876243 16.8302246C19.3876243 18.9175478 20.2526438 19.8327038 21.0675139 20.9609899 21.3558509 21.3621523 21.4185326 21.8448058 21.0549715 22.1456808 20.1460795 22.9041403 18.5288789 24.3144907 17.6387861 25.1042861L17.6262581 25.0917293"/>
  </g>
</svg>
