<?xml version="1.0" encoding="UTF-8"?>
<svg width="300px" height="100px" viewBox="0 0 300 100" version="1.1" xmlns="http://www.w3.org/2000/svg" xmlns:xlink="http://www.w3.org/1999/xlink">
    <!-- Generator: Sketch 41.2 (35397) - http://www.bohemiancoding.com/sketch -->
    <title>logo-asana</title>
    <desc>Created with Sketch.</desc>
    <defs></defs>
    <g id="Page-16" stroke="none" stroke-width="1" fill="none" fill-rule="evenodd">
        <g id="logo-asana" fill="#191919">
            <path d="M120.269841,59.281448 C115.915368,59.281448 112.385393,55.54498 112.385393,50.9348055 C112.385393,46.3254131 115.915368,42.5883585 120.269841,42.5883585 C124.624502,42.5883585 128.153722,46.3254131 128.153722,50.9348055 C128.153722,55.54498 124.624502,59.281448 120.269841,59.281448 L120.269841,59.281448 L120.269841,59.281448 L120.269841,59.281448 Z M128.179016,60.3402965 C128.179016,61.1043249 129.443321,63.2515432 130.992841,63.2515432 L131.99647,63.2515432 C132.385502,63.2515432 132.703937,62.921337 132.703937,62.5185994 L132.703937,39.6778935 L132.699785,39.6778935 C132.679587,39.293338 132.3721,38.9850286 131.99647,38.9850286 L128.886861,38.9850286 C128.510853,38.9850286 128.203743,39.293338 128.182602,39.6778935 L128.179016,39.6778935 L128.179016,41.5340067 C126.273686,39.103308 123.26997,38.0948997 120.257572,38.0948997 C113.41073,38.0948997 107.860849,43.8431018 107.860849,50.9348055 C107.860849,58.0265092 113.41073,63.7756885 120.257572,63.7756885 C123.26997,63.7756885 126.552672,62.5653247 128.178638,60.3369729 L128.179016,60.3402965 L128.179016,60.3402965 L128.179016,60.3402965 Z M140.133099,57.0691271 C142.208878,58.5580839 144.474736,59.281448 146.651878,59.281448 C148.726524,59.281448 150.870822,58.1674675 150.870822,56.2292429 C150.870822,53.6409686 146.197914,53.2380352 143.262151,52.2047979 C140.325633,51.171365 137.796267,49.0345086 137.796267,45.5746784 C137.796267,40.2808273 142.350824,38.0941177 146.60148,38.0941177 C149.295065,38.0941177 152.07397,39.0141585 153.87567,40.3320492 C154.496498,40.8186581 154.118225,41.3779947 154.118225,41.3779947 L152.398446,43.9220849 C152.205157,44.2084982 151.804422,44.4374331 151.382169,44.1457417 C150.223569,43.3525826 148.933026,42.5881629 146.60148,42.5881629 C143.71536,42.5881629 142.44577,43.8290254 142.44577,45.3662716 C142.44577,47.2104588 144.476246,47.7903229 146.854605,48.4190626 C150.999556,49.575663 155.520513,50.9668679 155.520513,56.2292429 C155.520513,60.8935723 151.307798,63.7764705 146.651878,63.7764705 C143.123979,63.7764705 140.119886,62.7344357 137.600525,60.8196716 C137.075965,60.2757799 137.442345,59.7705985 137.442345,59.7705985 L139.153819,57.239802 C139.50189,56.7660965 139.940943,56.9314926 140.133099,57.0691271 L140.133099,57.0691271 L140.133099,57.0691271 Z M178.840508,60.3402965 C178.840508,61.1043249 180.104813,63.2515432 181.654333,63.2515432 L182.657585,63.2515432 C183.046994,63.2515432 183.365619,62.921337 183.365619,62.5185994 L183.365619,39.6778935 L183.361466,39.6778935 C183.340702,39.293338 183.033592,38.9850286 182.657585,38.9850286 L179.548164,38.9850286 C179.171968,38.9850286 178.864858,39.293338 178.844283,39.6778935 L178.840508,39.6778935 L178.840508,41.5340067 C176.935367,39.103308 173.931274,38.0948997 170.91963,38.0948997 C164.0726,38.0948997 158.521964,43.8431018 158.521964,50.9348055 C158.521964,58.0265092 164.0726,63.7756885 170.91963,63.7756885 C173.931274,63.7756885 177.214164,62.5653247 178.840131,60.3369729 L178.840508,60.3402965 L178.840508,60.3402965 L178.840508,60.3402965 Z M170.931333,59.281448 C166.576672,59.281448 163.046886,55.54498 163.046886,50.9348055 C163.046886,46.3254131 166.576672,42.5883585 170.931333,42.5883585 C175.285617,42.5883585 178.815404,46.3254131 178.815404,50.9348055 C178.815404,55.54498 175.285617,59.281448 170.931333,59.281448 L170.931333,59.281448 L170.931333,59.281448 Z M211.225258,61.1252438 L211.223937,49.3066498 L211.224315,49.3066498 C211.224315,42.6440771 207.166004,38.1496405 200.694415,38.1496405 C197.605569,38.1496405 195.078091,39.9996927 194.183752,41.5887474 L194.183752,41.5666556 L194.178467,41.5848373 C194.17658,39.976428 192.917182,39.0399648 191.364643,39.0399648 L190.366298,39.0399648 C189.976701,39.0399648 189.658454,39.370171 189.658454,39.7732995 L189.658454,60.3973837 L189.658454,60.4009025 L189.658454,62.6153735 L189.662606,62.6153735 C189.682615,62.9999296 189.99048,63.3086304 190.366298,63.3086304 L193.475719,63.3086304 C193.523286,63.3086304 193.570098,63.3027652 193.6154,63.2939674 C193.636164,63.2894709 193.654851,63.2810641 193.674859,63.2750038 C193.698454,63.2679655 193.722426,63.2621002 193.744134,63.2525205 C193.772259,63.2407906 193.797175,63.2245634 193.823035,63.2097054 C193.835493,63.2018851 193.848895,63.1962155 193.861164,63.1883952 C193.891554,63.1674763 193.920434,63.1424522 193.947993,63.1168409 C193.952523,63.1119535 193.957997,63.1088255 193.962339,63.1043288 C193.993484,63.0736345 194.02142,63.0400079 194.046525,63.0040354 L194.046903,63.003644 C194.124671,62.8927936 194.171861,62.7596556 194.1796,62.6153735 L194.183752,62.6153735 L194.183752,49.1232671 C194.183752,45.5449619 196.984553,42.6440771 200.439591,42.6440771 C203.894629,42.6440771 206.695618,45.5449619 206.695618,49.1232671 L206.698072,60.4012938 L206.699015,60.3973837 C206.699015,60.4071585 206.700714,60.4177161 206.700714,60.4280774 L206.700714,62.6153735 L206.704867,62.6153735 C206.725442,62.9999296 207.032552,63.3086304 207.408748,63.3086304 L210.518169,63.3086304 C210.566113,63.3086304 210.61217,63.3027652 210.657473,63.2939674 C210.67597,63.2896666 210.692959,63.2820419 210.710514,63.2775452 C210.736562,63.2697249 210.762611,63.2628824 210.78696,63.2525205 C210.812065,63.241377 210.835472,63.2265185 210.859256,63.2126379 C210.873979,63.2042311 210.889457,63.1977793 210.903424,63.1883952 C210.932682,63.1682585 210.958731,63.1447981 210.984591,63.1217285 C210.991198,63.115668 210.998559,63.1103893 211.004787,63.1041332 C211.034424,63.0748076 211.060094,63.0429404 211.084444,63.009705 C211.085955,63.0067721 211.088031,63.0048175 211.090107,63.0024711 C211.166744,62.8927936 211.213367,62.7606329 211.221672,62.6173286 C211.221672,62.616547 211.22205,62.6153735 211.22205,62.6153735 L211.225636,62.6153735 L211.225636,61.1258303 L211.225258,61.1252438 L211.225258,61.1252438 L211.225258,61.1252438 Z M235.475456,60.3402965 C235.475456,61.1043249 236.73825,63.2515432 238.287959,63.2515432 L239.292156,63.2515432 C239.680997,63.2515432 240,62.921337 240,62.5185994 L240,39.6778935 L239.996225,39.6778935 C239.975461,39.293338 239.667785,38.9850286 239.292156,38.9850286 L236.1833,38.9850286 C235.805783,38.9850286 235.499995,39.293338 235.479231,39.6778935 L235.475456,39.6778935 L235.475456,41.5340067 C233.568993,39.103308 230.565844,38.0948997 227.553257,38.0948997 C220.706982,38.0948997 215.156345,43.8431018 215.156345,50.9348055 C215.156345,58.0265092 220.706982,63.7756885 227.553257,63.7756885 C230.565844,63.7756885 233.848358,62.5653247 235.473568,60.3369729 L235.475456,60.3402965 L235.475456,60.3402965 L235.475456,60.3402965 Z M227.566469,59.281448 C223.211808,59.281448 219.682022,55.54498 219.682022,50.9348055 C219.682022,46.3254131 223.211808,42.5883585 227.566469,42.5883585 C231.919243,42.5883585 235.449029,46.3254131 235.449029,50.9348055 C235.449029,55.54498 231.919243,59.281448 227.566469,59.281448 L227.566469,59.281448 Z M91.3928683,51.588093 C86.727324,51.588093 82.9458208,55.4856522 82.9458208,60.2937445 C82.9458208,65.1021388 86.727324,69 91.3928683,69 C96.0578264,69 99.8396227,65.1021388 99.8396227,60.2937445 C99.8396227,55.4856522 96.0578264,51.588093 91.3928683,51.588093 L91.3928683,51.588093 Z M69.4469007,51.5886973 C64.7819429,51.5886973 61,55.4856522 61,60.2941976 C61,65.1021388 64.7819429,69 69.4469007,69 C74.1121522,69 77.8942417,65.1021388 77.8942417,60.2941976 C77.8942417,55.4856522 74.1121522,51.5886973 69.4469007,51.5886973 L69.4469007,51.5886973 Z M88.8664924,40.7056514 C88.8664924,45.5137435 85.0849892,49.412209 80.420031,49.412209 C75.7546335,49.412209 71.9729838,45.5137435 71.9729838,40.7056514 C71.9729838,35.8978612 75.7546335,32 80.420031,32 C85.0849892,32 88.8664924,35.8978612 88.8664924,40.7056514 L88.8664924,40.7056514 Z" id="Combined-Shape"></path>
        </g>
    </g>
</svg>