<svg xmlns="http://www.w3.org/2000/svg" width="300" height="100" viewBox="0 0 300 100">
  <g transform="translate(67 33)">
    <path d="M165.959222,15.811448 L165.959222,12.9322624 L162.334836,12.9322624 L162.334836,8.45622172 L162.212824,8.49328054 L158.80854,9.52079186 L158.741433,9.54090498 L158.741433,12.9324208 L153.368267,12.9324208 L153.368267,11.0430543 C153.368267,10.1633032 153.56766,9.49006787 153.960665,9.04108597 C154.350942,8.59748869 154.909145,8.37196833 155.621147,8.37196833 C156.132954,8.37196833 156.662901,8.49090498 157.196221,8.72545249 L157.329952,8.78436652 L157.329952,5.75219457 L157.267019,5.72938914 C156.769501,5.5529638 156.092818,5.46411765 155.253988,5.46411765 C154.196822,5.46411765 153.236302,5.69106335 152.398596,6.1408371 C151.560408,6.59124434 150.901064,7.23423077 150.439186,8.05174208 C149.978913,8.86830317 149.745325,9.81140271 149.745325,10.8550679 L149.745325,12.9322624 L147.221611,12.9322624 L147.221611,15.811448 L149.745325,15.811448 L149.745325,27.9409276 L153.368267,27.9409276 L153.368267,15.811448 L158.741433,15.811448 L158.741433,23.5195249 C158.741433,26.6940724 160.259354,28.3028054 163.252973,28.3028054 C163.744872,28.3028054 164.262619,28.2459502 164.791282,28.1346154 C165.329418,28.0202715 165.695934,27.906086 165.911702,27.7841403 L165.959383,27.756267 L165.959383,24.8504751 L165.812006,24.9466063 C165.615342,25.0758371 165.370516,25.1814706 165.083468,25.2600226 C164.795135,25.34 164.554323,25.3800679 164.367774,25.3800679 C163.666528,25.3800679 163.147658,25.1936652 162.825772,24.8257692 C162.500193,24.4545475 162.334996,23.8053846 162.334996,22.8972851 L162.334996,15.811448 L165.959222,15.811448 Z M139.130957,25.380543 C137.815961,25.380543 136.779184,24.9504072 136.048559,24.1031222 C135.313439,23.2515611 134.940983,22.0374887 134.940983,20.4949548 C134.940983,18.9034842 135.313439,17.6578959 136.04888,16.7912896 C136.779986,15.9303846 137.80681,15.4934389 139.101418,15.4934389 C140.357656,15.4934389 141.357669,15.9107466 142.074006,16.7344344 C142.793874,17.5623982 143.159267,18.798009 143.159267,20.408009 C143.159267,22.0378054 142.815708,23.2897285 142.138222,24.1271946 C141.465393,24.9583258 140.45366,25.380543 139.130957,25.380543 L139.130957,25.380543 Z M139.291981,12.5707014 C136.783197,12.5707014 134.790555,13.2958824 133.369762,14.7261312 C131.949932,16.1565385 131.230064,18.1360181 131.230064,20.6100905 C131.230064,22.96 131.932754,24.8501584 133.31887,26.2271946 C134.704986,27.6047059 136.59135,28.3024887 138.925143,28.3024887 C141.357027,28.3024887 143.310015,27.5671719 144.730166,26.1171267 C146.150157,24.6686652 146.869544,22.7078733 146.869544,20.2916063 C146.869544,17.9049548 146.194466,16.0007014 144.862453,14.6328507 C143.529797,13.2643665 141.655313,12.5707014 139.291981,12.5707014 L139.291981,12.5707014 Z M125.388758,12.5707014 C123.682201,12.5707014 122.270559,13.0013122 121.192201,13.8503394 C120.107261,14.7044344 119.556925,15.8245928 119.556925,17.1800905 C119.556925,17.8846833 119.675725,18.5105656 119.909474,19.0414253 C120.144667,19.5740271 120.508615,20.0429638 120.992166,20.4365158 C121.472025,20.8269005 122.212764,21.2358145 123.194315,21.6518552 C124.019499,21.98681 124.634855,22.2701357 125.025774,22.4934389 C125.407863,22.7123077 125.679017,22.9322851 125.832174,23.1465611 C125.980996,23.3562443 126.056451,23.6432127 126.056451,23.9973303 C126.056451,25.0056787 125.290988,25.4963122 123.715915,25.4963122 C123.131704,25.4963122 122.465296,25.3759502 121.735313,25.1387104 C121.010516,24.9050575 120.326434,24.562887 119.707031,24.1241855 L119.556603,24.0177602 L119.556603,27.4586878 L119.61183,27.4840271 C120.124439,27.7174661 120.770779,27.9143213 121.532549,28.0692081 C122.292874,28.2242534 122.983685,28.3031222 123.583789,28.3031222 C125.435636,28.3031222 126.926907,27.8704525 128.015058,27.0163575 C129.110112,26.1564027 129.665104,25.0097964 129.665104,23.6074208 C129.665104,22.5957466 129.366337,21.72819 128.77747,21.0285068 C128.192617,20.3345249 127.177513,19.6973982 125.761696,19.1342308 C124.633731,18.6876244 123.911133,18.3168778 123.613008,18.0322851 C123.325638,17.7573529 123.179706,17.368552 123.179706,16.8761765 C123.179706,16.4397059 123.359834,16.0900226 123.729561,15.8068552 C124.102178,15.5222624 124.620888,15.3775113 125.271402,15.3775113 C125.875039,15.3775113 126.492642,15.4715837 127.106874,15.6559276 C127.720625,15.8402715 128.259723,16.0871719 128.709721,16.3891855 L128.857741,16.4889593 L128.857741,13.2249321 L128.800909,13.2008597 C128.385749,13.0252262 127.838302,12.8749321 127.173338,12.7529864 C126.511426,12.6318326 125.911,12.5707014 125.388758,12.5707014 L125.388758,12.5707014 Z M110.112103,25.380543 C108.797427,25.380543 107.760329,24.9504072 107.029865,24.1031222 C106.294584,23.2515611 105.92277,22.0378054 105.92277,20.4949548 C105.92277,18.9034842 106.295066,17.6578959 107.030667,16.7912896 C107.761132,15.9303846 108.787795,15.4934389 110.083044,15.4934389 C111.338801,15.4934389 112.338814,15.9107466 113.055311,16.7344344 C113.77534,17.5623982 114.140573,18.798009 114.140573,20.408009 C114.140573,22.0378054 113.796853,23.2897285 113.119368,24.1271946 C112.446538,24.9583258 111.435286,25.380543 110.112103,25.380543 L110.112103,25.380543 Z M110.273607,12.5707014 C107.764182,12.5707014 105.771379,13.2958824 104.351389,14.7261312 C102.931559,16.1565385 102.211209,18.1360181 102.211209,20.6100905 C102.211209,22.9609502 102.914381,24.8501584 104.300497,26.2271946 C105.686613,27.6047059 107.572816,28.3024887 109.906609,28.3024887 C112.338172,28.3024887 114.291642,27.5671719 115.711793,26.1171267 C117.131462,24.6686652 117.85117,22.7078733 117.85117,20.2916063 C117.85117,17.9049548 117.175932,16.0007014 115.843598,14.6328507 C114.510621,13.2643665 112.636458,12.5707014 110.273607,12.5707014 L110.273607,12.5707014 Z M96.7116963,15.531448 L96.7116963,12.9322624 L93.1329033,12.9322624 L93.1329033,27.9406109 L96.7116963,27.9406109 L96.7116963,20.2632579 C96.7116963,18.9578054 97.0117485,17.8853167 97.6038259,17.0752489 C98.1883578,16.2748416 98.9673056,15.8692534 99.918354,15.8692534 C100.240721,15.8692534 100.602582,15.9216742 100.994464,16.0254072 C101.382333,16.1285068 101.66328,16.2404751 101.828959,16.3583032 L101.979387,16.4658371 L101.979387,12.9066063 L101.921431,12.8820588 C101.588147,12.7423756 101.116636,12.6719005 100.520064,12.6719005 C99.6207099,12.6719005 98.8159149,12.9569683 98.1265493,13.5182353 C97.5214681,14.0115611 97.0841528,14.6879638 96.7497447,15.531448 L96.7116963,15.531448 Z M86.7239226,12.5707014 C85.0820638,12.5707014 83.6176035,12.918009 82.3719613,13.6026471 C81.1237505,14.2888688 80.1584139,15.268552 79.5016383,16.5142986 C78.8477524,17.7570362 78.5157524,19.2086652 78.5157524,20.8275339 C78.5157524,22.2455882 78.8376383,23.5469231 79.4738646,24.6938462 C80.110412,25.8426697 81.0113714,26.7414253 82.1518588,27.3647738 C83.2907408,27.9873303 84.6070213,28.3029638 86.0644178,28.3029638 C87.7651954,28.3029638 89.217294,27.9675339 90.3815416,27.3060181 L90.4285803,27.2794118 L90.4285803,24.045 L90.2781528,24.1533258 C89.7507737,24.5323077 89.1614255,24.8347964 88.5272863,25.0527149 C87.8947524,25.2704751 87.318087,25.380543 86.812381,25.380543 C85.4081238,25.380543 84.2808008,24.9470814 83.4625203,24.0925113 C82.6424739,23.2368326 82.2266712,22.0352715 82.2266712,20.5233032 C82.2266712,19.0018326 82.660294,17.7693891 83.5148569,16.8600226 C84.3668511,15.9533484 85.4962611,15.4934389 86.8714603,15.4934389 C88.0477485,15.4934389 89.1940155,15.8863575 90.2784739,16.6623756 L90.4285803,16.7699095 L90.4285803,13.3619231 L90.3800967,13.335 C89.972,13.109638 89.4154023,12.923552 88.7244313,12.7824434 C88.0363501,12.6416516 87.3633598,12.5707014 86.7239226,12.5707014 L86.7239226,12.5707014 Z M76.0509574,12.9324208 L72.4721644,12.9324208 L72.4721644,27.9406109 L76.0509574,27.9406109 L76.0509574,12.9324208 Z M74.2981644,6.53882353 C73.7091373,6.53882353 73.1954043,6.73662896 72.7733404,7.12859729 C72.3495106,7.52167421 72.1345455,8.01658371 72.1345455,8.60065611 C72.1345455,9.17554299 72.346942,9.66142534 72.7667582,10.0440498 C73.1838453,10.4255656 73.6991838,10.6189367 74.298325,10.6189367 C74.8973056,10.6189367 75.4145706,10.4255656 75.8366344,10.0446833 C76.2614275,9.66142534 76.4768743,9.17570136 76.4768743,8.60065611 C76.4768743,8.03701357 76.267207,7.54717195 75.8541335,7.14443439 C75.441381,6.74248869 74.9176944,6.53882353 74.2981644,6.53882353 L74.2981644,6.53882353 Z M65.3688414,11.8250905 L65.3688414,27.9406109 L69.0211625,27.9406109 L69.0211625,6.99825792 L63.9661896,6.99825792 L57.5409942,22.5536199 L51.3057195,6.99825792 L46.0449323,6.99825792 L46.0449323,27.9404525 L49.4771509,27.9404525 L49.4771509,11.8235068 L49.5949884,11.8235068 L56.1792805,27.9406109 L58.7694584,27.9406109 L65.2510039,11.8250905 L65.3688414,11.8250905 L65.3688414,11.8250905 Z"/>
    <polygon points="16.836 16.608 0 16.608 0 0 16.836 0"/>
    <polygon points="35.424 16.608 18.589 16.608 18.589 0 35.424 0"/>
    <polygon points="16.835 34.952 0 34.952 0 18.344 16.835 18.344"/>
    <polygon points="35.424 34.952 18.589 34.952 18.589 18.344 35.424 18.344"/>
  </g>
</svg>
