<?xml version="1.0" encoding="UTF-8"?>
<svg width="300px" height="100px" viewBox="0 0 300 100" version="1.1" xmlns="http://www.w3.org/2000/svg" xmlns:xlink="http://www.w3.org/1999/xlink">
    <!-- Generator: Sketch 41.2 (35397) - http://www.bohemiancoding.com/sketch -->
    <title>logo-uber</title>
    <desc>Created with Sketch.</desc>
    <defs></defs>
    <g id="Page-16" stroke="none" stroke-width="1" fill="none" fill-rule="evenodd">
        <g id="logo-uber" fill="#191919">
            <g id="Group" transform="translate(84.000000, 36.000000)">
                <path d="M20.7521065,0.650454545 L20.7521065,15.5009455 C20.7521065,20.4601091 18.5076046,22.5194727 13.2436654,22.5194727 C7.97922433,22.5194727 5.73522433,20.4601091 5.73522433,15.5009455 L5.73522433,0 L0.665019011,0 C0.221840304,0 0,0.216981818 0,0.650454545 L0,15.7449273 C0,24.0373636 5.40296578,26.9371636 13.2436654,26.9371636 C21.084365,26.9371636 26.4873308,24.0373636 26.4873308,15.7449273 L26.4873308,1.74405944e-15 L21.4171255,1.74405944e-15 C20.9739468,1.74405944e-15 20.7521065,0.216981818 20.7521065,0.650454545" id="Shape"></path>
                <path d="M94.2520152,4.30870909 C94.6675894,4.30870909 94.8613232,4.17370909 94.9998479,3.87572727 L96.4689125,0.325472727 C96.5492167,0.108981818 96.4689125,0 96.243057,0 L75.8257186,0 C73.9139772,0 73.194251,0.569454545 73.194251,1.84287273 L73.194251,24.9043091 C73.194251,25.9882364 73.7478479,26.4762 75.2164106,26.4762 L94.2505095,26.4762 C94.6660837,26.4762 94.8598175,26.3407091 94.9983422,26.0427273 L96.4674068,22.4924727 C96.5502205,22.2754909 96.4674068,22.1674909 96.2450646,22.1674909 L78.8180532,22.1674909 L78.8180532,17.4793091 C78.8180532,15.8534182 79.7325171,15.1214727 82.1983574,15.1214727 L89.7620076,15.1214727 C90.1775817,15.1214727 90.3713156,14.9864727 90.5103422,14.688 L91.9231939,11.2737273 C92.0065095,11.0567455 91.9231939,10.9482545 91.7013536,10.9482545 L78.8180532,10.9482545 L78.8180532,4.30870909 L94.2505095,4.30870909" id="Shape"></path>
                <path d="M52.9857034,22.2214909 L42.9808061,22.2214909 L42.9808061,17.3708182 C42.9808061,15.7449273 43.89527,15.0134727 46.3611103,15.0134727 L52.9857034,15.0134727 C56.1717719,15.0134727 57.0581293,16.2058909 57.0581293,18.6447273 C57.0581293,21.0835636 56.1717719,22.2214909 52.9857034,22.2214909 L52.9857034,22.2214909 Z M42.981308,4.25470909 L51.9332167,4.25470909 C54.9255513,4.25470909 55.7566996,5.35729091 55.7566996,7.64198182 C55.7566996,9.92716364 54.9255513,11.0297455 51.9332167,11.0297455 L42.981308,11.0297455 L42.981308,4.25470909 L42.981308,4.25470909 Z M58.3058555,12.5201455 C60.521749,11.3817273 61.4362129,9.24087273 61.4362129,6.72103636 C61.4362129,0.867436364 56.5577338,0 51.5136274,0 L39.9899772,0 C38.0782357,0 37.3585095,0.569454545 37.3585095,1.84287273 L37.3585095,24.9043091 C37.3585095,25.9882364 37.9121065,26.4762 39.3806692,26.4762 L53.566403,26.4762 C58.9136578,26.4762 62.7371407,24.4438364 62.7371407,19.1596909 C62.7371407,15.9889091 61.3513916,13.3060909 58.3043498,12.5201455 L58.3058555,12.5201455 Z" id="Shape"></path>
                <path d="M121.279392,12.2761636 L111.859209,12.2761636 L111.859209,4.2552 L121.279392,4.2552 C124.797719,4.2552 125.573658,5.58261818 125.573658,8.26543636 C125.573658,10.9752545 124.797719,12.2761636 121.279392,12.2761636 L121.279392,12.2761636 Z M131.859468,26.0152364 L125.796502,15.8264182 C128.812928,15.0674727 131.252167,13.1166 131.252167,8.15743636 C131.252167,1.73487273 127.181749,0 120.446236,0 L108.865369,0 C106.953627,0 106.232897,0.569454545 106.232897,1.84287273 L106.232897,25.8257455 C106.232897,26.2592182 106.454738,26.4762 106.897916,26.4762 L111.857202,26.4762 L111.857202,18.7532182 C111.857202,17.1268364 112.771665,16.3953818 115.237506,16.3953818 L120.224395,16.3953818 L125.710175,26.0427273 C125.876304,26.3137091 126.042433,26.4762 126.458008,26.4762 L131.611529,26.4762 C131.971894,26.4762 131.971894,26.1777273 131.860973,26.0152364 L131.859468,26.0152364 Z" id="Shape"></path>
            </g>
        </g>
    </g>
</svg>