<svg xmlns="http://www.w3.org/2000/svg" width="300" height="100" viewBox="0 0 300 100">
  <g fill-rule="evenodd" transform="translate(85 23)">
    <path d="M129.6 27.864C129.6 18.648 125.136 11.376 116.604 11.376 108.036 11.376 102.852 18.648 102.852 27.792 102.852 38.628 108.972 44.1 117.756 44.1 122.04 44.1 125.28 43.128 127.728 41.76L127.728 34.56C125.28 35.784 122.472 36.54 118.908 36.54 115.416 36.54 112.32 35.316 111.924 31.068L129.528 31.068C129.528 30.6 129.6 28.728 129.6 27.864zM111.816 24.444C111.816 20.376 114.3 18.684 116.568 18.684 118.764 18.684 121.104 20.376 121.104 24.444L111.816 24.444zM88.956 11.376C85.428 11.376 83.16 13.032 81.9 14.184L81.432 11.952 73.512 11.952 73.512 53.928 82.512 52.02 82.548 41.832C83.844 42.768 85.752 44.1 88.92 44.1 95.364 44.1 101.232 38.916 101.232 27.504 101.196 17.064 95.256 11.376 88.956 11.376zM86.796 36.18C84.672 36.18 83.412 35.424 82.548 34.488L82.512 21.132C83.448 20.088 84.744 19.368 86.796 19.368 90.072 19.368 92.34 23.04 92.34 27.756 92.34 32.58 90.108 36.18 86.796 36.18z"/>
    <polygon points="61.128 9.252 70.164 7.308 70.164 0 61.128 1.908"/>
    <rect width="9.036" height="31.5" x="61.128" y="11.988"/>
    <path d="M51.444 14.652L50.868 11.988 43.092 11.988 43.092 43.488 52.092 43.488 52.092 22.14C54.216 19.368 57.816 19.872 58.932 20.268L58.932 11.988C57.78 11.556 53.568 10.764 51.444 14.652zM33.444 4.176L24.66 6.048 24.624 34.884C24.624 40.212 28.62 44.136 33.948 44.136 36.9 44.136 39.06 43.596 40.248 42.948L40.248 35.64C39.096 36.108 33.408 37.764 33.408 32.436L33.408 19.656 40.248 19.656 40.248 11.988 33.408 11.988 33.444 4.176zM9.108 21.132C9.108 19.728 10.26 19.188 12.168 19.188 14.904 19.188 18.36 20.016 21.096 21.492L21.096 13.032C18.108 11.844 15.156 11.376 12.168 11.376 4.86 11.376 0 15.192 0 21.564 0 31.5 13.68 29.916 13.68 34.2 13.68 35.856 12.24 36.396 10.224 36.396 7.236 36.396 3.42 35.172.396 33.516L.396 42.084C3.744 43.524 7.128 44.136 10.224 44.136 17.712 44.136 22.86 40.428 22.86 33.984 22.824 23.256 9.108 25.164 9.108 21.132z"/>
  </g>
</svg>
