<svg xmlns="http://www.w3.org/2000/svg" width="300" height="100" viewBox="0 0 300 100">
  <g fill-rule="evenodd" transform="translate(70 34)">
    <path d="M0.4698,28.4292 C0.4446,25.902 0.2268,22.9806 0.0054,20.7468 C-0.0443448,20.2573222 0.298428894,19.8148037 0.7848,19.7406 L0.8208,19.7352 C1.2925887,19.6623188 1.74321636,19.9575576 1.8648,20.4192 C2.13641278,21.5442101 2.58738344,22.6181524 3.2004,23.5998 C3.7548,24.471 5.6952,27.4788 9.7704,27.4788 C12.7404,27.4788 14.9184,25.38 14.9184,22.7268 C14.9184,20.2752 12.9384,19.2852 9.0594,17.82 C7.9128,17.3448 6.7248,16.911 5.5764,16.3962 C3.9924,15.642 0.27,13.9014 0.27,9.0702 C0.27,3.69 4.5864,0.522 10.089,0.522 C11.4246,0.522 13.3254,0.7092 15.2298,1.584 C15.651,1.7766 16.1478,1.6272 16.3962,1.2384 L16.7112,0.7416 C16.876389,0.479805181 17.1613527,0.317740533 17.4708,0.309326159 C17.9681191,0.29766076 18.3875617,0.677533318 18.4248,1.1736 C18.5997159,3.42722658 18.8506588,5.6743062 19.1772,7.911 C19.3151681,8.24772967 19.2446281,8.63395744 18.9965383,8.9001782 C18.7484485,9.16639896 18.3681468,9.26396126 18.0225375,9.15004761 C17.6769283,9.03613395 17.4291711,8.73156188 17.388,8.37 C16.8912,7.0578 16.6104,6.444 16.065,5.6268 C14.76,3.8466 13.0176,2.6208 10.8414,2.6208 C8.0298,2.6208 6.3684,4.914 6.3684,6.7752 C6.3684,8.9118 8.2674,9.8226 9.099,10.2186 C10.8018,11.0502 12.582,11.6046 14.364,12.3174 C17.2134,13.4262 21.132,15.129 21.132,20.3544 C21.132,25.4988 17.0154,29.8134 10.485,29.8134 C7.2396,29.8134 5.1246,28.7874 3.897,28.008 C3.68663782,27.8757012 3.4318978,27.8335893 3.19014962,27.8911484 C2.94840144,27.9487075 2.73997148,28.1010979 2.6118,28.314 L2.2608,28.8936 C2.10460015,29.1487335 1.83546783,29.3134264 1.5372,29.3364 L1.4706,29.3418 C1.21458578,29.3628033 0.961363428,29.2764249 0.771554641,29.1033438 C0.581745853,28.9302628 0.472438184,28.6860608 0.4698,28.4292 M22.0013921,28.2024 C22.0013921,27.8082 22.284,27.4734 22.6692,27.4086 C23.2668,27.3096 23.9904,27.0522 24.1002,26.2926 C24.219,25.38 24.219,23.0058 24.219,22.4118 C24.219,21.0258 24.1794,18.7704 24.1794,17.3844 C24.1794,15.3972 23.5134,14.8518 22.5774,14.5872 C22.2347704,14.4869217 21.9998632,14.1719991 22.0013921,13.815 L22.0013921,13.7214 C22.0013921,13.3272 22.2858,12.996 22.6728,12.9294 C24.6438,12.5838 27.6246,11.7414 29.1888,11.2014 C29.3923462,11.1308704 29.6156979,11.1451037 29.8086448,11.2409002 C30.0015918,11.3366966 30.1479436,11.5060179 30.2148,11.7108 C30.2472,11.8152 30.2778,11.9142 30.3048,12.0168 C30.3737102,12.2573212 30.5505888,12.452098 30.7833751,12.5438017 C31.0161614,12.6355054 31.2783608,12.6136987 31.4928,12.4848 C32.9868,11.6172 34.4034,10.9728 36.4896,10.9728 C37.9944,10.9728 39.4992,11.3688 40.7268,12.2382 C42.6546,13.5774 42.9768,15.6222 43.1388,17.7876 L43.1388,21.2634 C43.1388,21.8574 43.0614,24.9444 43.0614,25.6194 C43.0614,26.6202 43.3332,27.2304 44.6418,27.4734 C45.0157566,27.5502363 45.2824209,27.8818669 45.2772753,28.2636 C45.2776704,28.4858765 45.1859626,28.6983995 45.0239204,28.8505486 C44.8618782,29.0026978 44.6440065,29.0808535 44.4222,29.0664 C43.3008,28.9908 41.607,28.9422 38.8242,28.9422 C37.2546,28.9422 36.3888,28.9854 35.5842,29.0556 C35.3592577,29.0758102 35.1361779,29.0005497 34.9694515,28.8482021 C34.802725,28.6958545 34.7077044,28.4804483 34.7076,28.2546 L34.7076,28.0854 C34.7076,27.7236 34.9506,27.4032 35.3016,27.3114 C36.459,26.9982 36.603,26.4456 36.5688,24.0354 L36.4896,17.8596 C36.45,15.9606 36.3708,13.7826 33.7968,13.7826 C32.7258,13.7826 31.896,14.175 31.0968,14.778 C30.8831076,14.9348652 30.7594641,15.1861839 30.7656,15.4512 C30.8286,17.4348 30.8286,23.0652 30.8286,24.8256 C30.8286,26.6418 31.1436,27.144 32.1102,27.3996 C32.4558,27.4896 32.6898,27.8136 32.6898,28.1718 L32.6898,28.2762 C32.6902368,28.4986196 32.5985838,28.7112979 32.4366075,28.8637261 C32.2746312,29.0161543 32.0567832,29.0947328 31.8348,29.0808 C30.4902,28.9962 28.7622,28.9422 25.524,28.9422 C24.2784,28.9422 23.5548,28.9818 22.8798,29.0466 C22.6541197,29.0679495 22.4299322,28.9928915 22.2626008,28.8399615 C22.0952693,28.6870315 22.0003924,28.4704857 22.0013921,28.2438 L22.0013921,28.2024 L22.0013921,28.2024 Z M56.482206,21.6108 C56.4808217,21.3623243 56.3647164,21.1284248 56.1676347,20.9770943 C55.9705531,20.8257638 55.7146078,20.7739814 55.4742,20.8368 C54.1386,21.1752 52.3656,21.9546 52.3656,24.0354 C52.3656,25.1046 52.92,26.2908 54.4248,26.2908 C55.1916,26.2908 55.6488,26.0586 56.1294,25.7418 C56.3508656,25.5926688 56.4832315,25.3427944 56.482206,25.0758 L56.482206,21.6108 L56.482206,21.6108 Z M65.6298,26.19 C65.8065301,26.3317967 65.9152809,26.5415381 65.9293295,26.7676851 C65.943378,26.9938321 65.8614219,27.2154205 65.7036,27.378 C63.801,29.304 61.9146,29.6964 60.876,29.6964 C59.8076467,29.6835469 58.769965,29.3374433 57.9078,28.7064 C57.6328773,28.4855213 57.3862188,28.2316082 57.1734,27.9504 C56.9214373,27.6164009 56.4531505,27.535988 56.1042,27.7668 C55.0152,28.4742 52.767,29.7342 50.2686,29.7342 C46.6254,29.7342 45.756,27.2808 45.756,25.8174 C45.756,21.294 52.7166,19.4022 55.8684,18.837 C56.2474417,18.7675684 56.5229634,18.4375479 56.5236,18.0522 C56.5272,16.8282 56.529,15.3882 56.3634,14.8914 C55.8882,13.5054 54.306,13.5054 54.108,13.5054 C52.8012,13.5054 52.0884,14.2974 51.8508,15.1686 C51.732,15.6834 51.732,16.2378 51.6132,16.7526 C51.2964,18.0972 50.1876,18.612 49.1994,18.612 C47.9718,18.612 46.8234,17.82 46.8234,16.3566 C46.8234,13.4262 52.2468,11.0502 57.1554,11.0502 C60.5592,11.0502 63.0522,12.159 63.0522,15.4458 L62.9748,24.273 C62.9352,24.9462 62.8938,26.487 63.9234,26.487 C64.179,26.487 64.4202,26.3538 64.647,26.1774 C64.9385525,25.9551986 65.3440398,25.9603972 65.6298,26.19 L65.6298,26.19 Z"/>
    <path d="M76.77,27.0036 C79.6986,27.0036 80.766,22.9266 80.766,20.2356 C80.766,17.3844 79.578,13.5846 76.6512,13.5846 C73.998,13.5846 73.998,16.317 73.998,17.1468 C73.998,18.0576 74.0394,22.491 74.0394,23.481 C74.0394,24.7482 74.0394,27.0036 76.77,27.0036 L76.77,27.0036 Z M67.4676,17.622 C67.5396,14.598 67.1076,13.8852 65.7576,13.5126 C65.4300523,13.4153409 65.2067168,13.1126625 65.2103551,12.771 L65.2103551,12.573 C65.2087932,12.1876975 65.4972183,11.8628316 65.88,11.8188 C68.553,11.5326 71.3808,10.8036 72.7722,10.4256 C72.9731154,10.3700495 73.188083,10.4005521 73.3656141,10.5098021 C73.5431453,10.619052 73.6672489,10.7972086 73.7082,11.0016 C73.7496,11.1852 73.791,11.4102 73.8414,11.6928 C73.8835237,11.9412433 74.0463883,12.1524962 74.2759387,12.2564436 C74.5054892,12.360391 74.7716942,12.3434337 74.9862,12.2112 C76.5396,11.2158 78.0714,10.6956 80.0154,10.6956 C84.8052,10.6956 87.7734,14.8122 87.7734,19.1664 C87.7734,25.1424 83.538,29.3004 78.5916,29.3004 C77.0742,29.3004 75.969,28.9134 75.204,28.5012 C74.9692217,28.3723737 74.6839541,28.376694 74.4531847,28.512571 C74.2224153,28.648448 74.0802462,28.8958025 74.079,29.1636 L74.079,33.732 C74.079,35.2638 74.1726,36.4446 75.8106,36.7218 C76.1650967,36.792133 76.4187722,37.1056305 76.4136,37.467 C76.4136575,37.6716163 76.3311623,37.8676022 76.1847925,38.0105838 C76.0384228,38.1535654 75.8405588,38.2314487 75.636,38.2268136 C73.679215,38.1723949 71.7219001,38.139393 69.7644,38.1276 C68.2758,38.1276 67.3128,38.1546 66.0456,38.2086 C65.8386034,38.2184227 65.6365798,38.1432483 65.4863555,38.0005012 C65.3361311,37.857754 65.2507492,37.6598282 65.25,37.4526 L65.25,37.3536 C65.25,36.9864 65.5056,36.657 65.8692,36.5958 C67.3416,36.3438 67.4676,35.5338 67.4676,34.4052 C67.5072,33.6528 67.5072,31.3182 67.5072,30.447 L67.4676,17.622 L67.4676,17.622 Z M108.4896,29.0628 C106.8822,28.944 105.831,28.944 101.6208,28.944 C99.3168,28.944 98.397,28.971 97.0488,29.0664 C96.5721242,29.0891808 96.1599127,28.737358 96.1075262,28.2630222 C96.0551397,27.7886865 96.3806412,27.3553893 96.8508,27.2736 C99.0702,26.9622 99.1656,26.1612 99.1656,21.1446 L99.1656,8.5572 C99.126,5.5494 99.0882,4.6386 98.8092,4.0842 C98.5104,3.3822 98.0406,3.2166 96.831,3.015 C96.3970203,2.9428505 96.0788025,2.56753621 96.0786,2.1276 C96.0786,1.5732 96.4962,1.1682 97.0038,1.1826 C99.2286,1.242 101.4552,1.2726 103.6782,1.2726 C105.9102,1.2726 107.3412,1.224 108.5688,1.1826 C109.064365,1.14184139 109.499141,1.51053489 109.5399,2.0061 C109.580659,2.50166511 109.211965,2.93644139 108.7164,2.9772 C106.371,3.2706 106.371,3.9816 106.371,9.2304 L106.4106,21.501 C106.4898,25.659 106.5294,25.8966 107.0046,26.5284 C107.343,26.928 107.874,27.1386 108.6876,27.2484 C109.130079,27.312788 109.458189,27.6922607 109.458,28.1394 C109.463127,28.3937944 109.361184,28.6386485 109.177035,28.8142396 C108.992887,28.9898308 108.743463,29.0800167 108.4896,29.0628 L108.4896,29.0628 Z M109.745992,28.2024 C109.745992,27.8082 110.0286,27.4734 110.4138,27.4086 C111.0114,27.3096 111.735,27.0522 111.8448,26.2926 C111.9636,25.38 111.9636,23.0058 111.9636,22.4118 C111.9636,21.0258 111.924,18.7704 111.924,17.3844 C111.924,15.3972 111.258,14.8518 110.322,14.5872 C109.97937,14.4869217 109.744463,14.1719991 109.745992,13.815 L109.745992,13.7214 C109.745992,13.3272 110.0286,12.996 110.4174,12.9294 C112.3884,12.5838 115.3674,11.7414 116.9334,11.2014 C117.136946,11.1308704 117.360298,11.1451037 117.553245,11.2409002 C117.746192,11.3366966 117.892544,11.5060179 117.9594,11.7108 C117.9918,11.8152 118.0224,11.9142 118.0494,12.0168 C118.118463,12.2567749 118.295034,12.4510814 118.527323,12.5427283 C118.759613,12.6343752 119.021289,12.6129733 119.2356,12.4848 C120.7296,11.6172 122.1462,10.9728 124.2342,10.9728 C125.7372,10.9728 127.242,11.3688 128.4696,12.2382 C130.3992,13.5774 130.7232,15.6222 130.8816,17.7876 C130.8852,17.8092 130.8852,17.8308 130.8852,17.8524 L130.8852,21.2634 C130.8852,21.8574 130.806,24.9444 130.806,25.6194 C130.806,26.6202 131.076,27.2304 132.3864,27.4734 C132.760357,27.5502363 133.027021,27.8818669 133.021875,28.2636 C133.022304,28.4862108 132.930352,28.6990366 132.767906,28.8512443 C132.60546,29.003452 132.387107,29.0813744 132.165,29.0664 C131.0454,28.9908 129.3498,28.9422 126.5688,28.9422 C124.9974,28.9422 124.1334,28.9854 123.3288,29.0556 C123.103858,29.0758102 122.880778,29.0005497 122.714051,28.8482021 C122.547325,28.6958545 122.452304,28.4804483 122.4522,28.2546 L122.4522,28.0854 C122.4522,27.7236 122.6952,27.4032 123.0462,27.3114 C124.2036,26.9982 124.3476,26.4456 124.3134,24.0354 L124.2342,17.8596 C124.1928,15.9606 124.1154,13.7826 121.5414,13.7826 C120.4704,13.7826 119.6388,14.175 118.8396,14.778 C118.626587,14.9352552 118.503647,15.1865099 118.5102,15.4512 C118.5732,17.4348 118.5732,23.0652 118.5732,24.8256 C118.5732,26.6418 118.8864,27.144 119.8548,27.3996 C120.2004,27.4896 120.4344,27.8136 120.4344,28.1718 L120.4344,28.2762 C120.434837,28.4986196 120.343184,28.7112979 120.181208,28.8637261 C120.019231,29.0161543 119.801383,29.0947328 119.5794,29.0808 C118.2348,28.9962 116.5068,28.9422 113.2686,28.9422 C112.023,28.9422 111.2994,28.9818 110.6244,29.0466 C110.39872,29.0679495 110.174532,28.9928915 110.007201,28.8399615 C109.839869,28.6870315 109.744992,28.4704857 109.745992,28.2438 L109.745992,28.2024 L109.745992,28.2024 Z M150.9246,24.7572 C151.4214,25.1172 151.4898,25.8444 151.0542,26.2764 C148.871528,28.4438295 145.927503,29.6713143 142.8516,29.6964 C137.1906,29.6964 133.0344,25.776 133.0344,20.3922 C133.0344,14.733 137.8638,11.0916 143.7624,11.0916 C147.6414,11.0916 151.3224,12.7926 151.3224,15.6438 C151.3224,16.9884 150.1758,18.1368 148.8294,18.1368 C148.2354,18.1368 147.5226,17.8596 147.087,17.424 C146.7306,17.1072 146.6514,16.9092 145.899,15.2082 C145.5426,14.4558 144.7506,13.1094 143.5248,13.1094 C141.228,13.1094 140.5944,17.028 140.5944,18.9684 C140.5944,23.4414 143.1288,26.4492 145.899,26.4492 C147.3714,26.4492 148.59,25.7724 149.6718,24.822 C150.022911,24.5102066 150.543194,24.4832954 150.9246,24.7572 M156.3912,22.5702 C158.3316,22.5702 159.9912,24.1146 159.9912,26.172 C159.9912,28.1916 158.3316,29.736 156.4308,29.736 C154.485078,29.756 152.890524,28.1968797 152.8668,26.2512 C152.8668,23.7978 154.7676,22.5702 156.3912,22.5702"/>
  </g>
</svg>
